<svg xmlns="http://www.w3.org/2000/svg" viewBox="0 0 100 100">
  <!-- 背景円 -->
  <circle cx="50" cy="50" r="50" fill="#0a0e1a"/>
  <!-- 外側ゴールドリング -->
  <circle cx="50" cy="50" r="46" fill="none" stroke="#f59e0b" stroke-width="4"/>
  <!-- 内側リング -->
  <circle cx="50" cy="50" r="38" fill="none" stroke="#f59e0b" stroke-width="1.5" opacity="0.5"/>
  <!-- チップ模様（セクター） -->
  <path d="M50 12 A38 38 0 0 1 83 31 L74 37 A28 28 0 0 0 50 22 Z" fill="#f59e0b" opacity="0.25"/>
  <path d="M83 69 A38 38 0 0 1 50 88 L50 78 A28 28 0 0 0 74 63 Z" fill="#f59e0b" opacity="0.25"/>
  <path d="M17 31 A38 38 0 0 1 50 12 L50 22 A28 28 0 0 0 26 37 Z" fill="#f59e0b" opacity="0.25"/>
  <path d="M50 88 A38 38 0 0 1 17 69 L26 63 A28 28 0 0 0 50 78 Z" fill="#f59e0b" opacity="0.25"/>
  <!-- スペードマーク -->
  <text x="50" y="65" text-anchor="middle" font-size="40" fill="#f59e0b" font-family="serif" font-weight="bold">♠</text>
</svg>
